<?xml version="1.0" encoding="utf-8"?>
<!-- Generator: Adobe Illustrator 24.2.3, SVG Export Plug-In . SVG Version: 6.00 Build 0)  -->
<svg version="1.1" id="Layer_1" xmlns="http://www.w3.org/2000/svg" xmlns:xlink="http://www.w3.org/1999/xlink" x="0px" y="0px"
	 viewBox="0 0 228.7 39.1" style="enable-background:new 0 0 228.7 39.1;" xml:space="preserve">
<style type="text/css">
	.st0{fill:#FED136;}
	.st1{font-family:'MyriadPro-Regular';}
	.st2{font-size:12px;}
</style>
<g>
	<path class="st0" d="M9.6,22.4l-3.6-11h1.5l1.7,5.4c0.5,1.5,0.9,2.8,1.2,4.1h0c0.3-1.3,0.8-2.7,1.3-4.1l1.9-5.4h1.5l-3.9,11H9.6z"
		/>
	<path class="st0" d="M17.6,12.4c0,0.5-0.3,0.9-0.9,0.9c-0.5,0-0.9-0.4-0.9-0.9c0-0.5,0.4-0.9,0.9-0.9
		C17.3,11.5,17.6,11.9,17.6,12.4z M16,22.4v-7.9h1.4v7.9H16z"/>
	<path class="st0" d="M19.8,17c0-0.9,0-1.7-0.1-2.5H21l0,1.5h0.1c0.4-1.1,1.2-1.7,2.2-1.7c0.2,0,0.3,0,0.4,0v1.3c-0.1,0-0.3,0-0.5,0
		c-1,0-1.7,0.8-1.9,1.8c0,0.2-0.1,0.4-0.1,0.7v4.2h-1.4V17z"/>
	<path class="st0" d="M31.7,20.3c0,0.8,0,1.5,0.1,2.1h-1.3l-0.1-1.3h0c-0.4,0.6-1.2,1.5-2.6,1.5c-1.2,0-2.7-0.7-2.7-3.4v-4.6h1.4
		v4.4c0,1.5,0.5,2.5,1.8,2.5c1,0,1.6-0.7,1.9-1.3c0.1-0.2,0.1-0.5,0.1-0.7v-4.8h1.4V20.3z"/>
	<path class="st0" d="M35.8,12.3v2.3h2v1.1h-2v4.2c0,1,0.3,1.5,1.1,1.5c0.4,0,0.7,0,0.8-0.1l0.1,1.1c-0.3,0.1-0.7,0.2-1.3,0.2
		c-0.7,0-1.2-0.2-1.5-0.6c-0.4-0.4-0.6-1.1-0.6-2v-4.3h-1.2v-1.1h1.2v-1.9L35.8,12.3z"/>
	<path class="st0" d="M43.8,22.4l-0.1-1h0c-0.4,0.6-1.3,1.2-2.4,1.2c-1.6,0-2.4-1.1-2.4-2.3c0-1.9,1.7-2.9,4.7-2.9v-0.2
		c0-0.7-0.2-1.8-1.8-1.8c-0.7,0-1.5,0.2-2,0.6l-0.3-0.9c0.7-0.4,1.6-0.7,2.6-0.7c2.4,0,3,1.6,3,3.2v2.9c0,0.7,0,1.4,0.1,1.9H43.8z
		 M43.6,18.4c-1.6,0-3.3,0.2-3.3,1.8c0,0.9,0.6,1.4,1.3,1.4c1,0,1.7-0.7,1.9-1.3c0-0.1,0.1-0.3,0.1-0.5V18.4z"/>
	<path class="st0" d="M47.3,10.9h1.4v11.6h-1.4V10.9z"/>
	<path class="st0" d="M56.1,12.7h-3.3v-1.2h8.1v1.2h-3.4v9.8h-1.4V12.7z"/>
	<path class="st0" d="M68,18.4c0,2.9-2,4.2-3.9,4.2c-2.1,0-3.8-1.6-3.8-4.1c0-2.6,1.7-4.2,3.9-4.2C66.5,14.4,68,16,68,18.4z
		 M61.7,18.5c0,1.7,1,3,2.4,3c1.4,0,2.4-1.3,2.4-3.1c0-1.3-0.7-3-2.4-3C62.5,15.5,61.7,17,61.7,18.5z"/>
	<path class="st0" d="M76.4,20.3c0,0.8,0,1.5,0.1,2.1h-1.3l-0.1-1.3h0c-0.4,0.6-1.2,1.5-2.6,1.5c-1.2,0-2.7-0.7-2.7-3.4v-4.6h1.4
		v4.4c0,1.5,0.5,2.5,1.8,2.5c1,0,1.6-0.7,1.9-1.3c0.1-0.2,0.1-0.5,0.1-0.7v-4.8h1.4V20.3z"/>
	<path class="st0" d="M78.8,17c0-0.9,0-1.7-0.1-2.5h1.3l0,1.5h0.1c0.4-1.1,1.2-1.7,2.2-1.7c0.2,0,0.3,0,0.4,0v1.3
		c-0.1,0-0.3,0-0.5,0c-1,0-1.7,0.8-1.9,1.8c0,0.2-0.1,0.4-0.1,0.7v4.2h-1.4V17z"/>
	<path class="st0" d="M83.9,21c0.4,0.3,1.2,0.6,1.9,0.6c1,0,1.5-0.5,1.5-1.2c0-0.7-0.4-1.1-1.5-1.4c-1.4-0.5-2.1-1.3-2.1-2.2
		c0-1.3,1-2.3,2.7-2.3c0.8,0,1.5,0.2,1.9,0.5l-0.4,1c-0.3-0.2-0.9-0.5-1.6-0.5c-0.8,0-1.3,0.5-1.3,1.1c0,0.7,0.5,0.9,1.5,1.3
		c1.4,0.5,2.1,1.2,2.1,2.4c0,1.4-1.1,2.4-2.9,2.4c-0.9,0-1.7-0.2-2.2-0.5L83.9,21z"/>
	<path class="st0" d="M97.3,17.5v1.1h-4v-1.1H97.3z"/>
	<path class="st0" d="M111.7,17.6c-0.1-1.5-0.2-3.4-0.2-4.7h0c-0.4,1.3-0.8,2.7-1.4,4.2l-1.9,5.3h-1.1l-1.8-5.2
		c-0.5-1.5-1-3-1.3-4.3h0c0,1.4-0.1,3.2-0.2,4.8l-0.3,4.7h-1.3l0.8-11h1.8l1.9,5.3c0.5,1.3,0.8,2.6,1.1,3.7h0
		c0.3-1.1,0.7-2.3,1.2-3.7l2-5.3h1.8l0.7,11H112L111.7,17.6z"/>
	<path class="st0" d="M122.7,18.4c0,2.9-2,4.2-3.9,4.2c-2.1,0-3.8-1.6-3.8-4.1c0-2.6,1.7-4.2,3.9-4.2
		C121.2,14.4,122.7,16,122.7,18.4z M116.5,18.5c0,1.7,1,3,2.4,3c1.4,0,2.4-1.3,2.4-3.1c0-1.3-0.7-3-2.4-3
		C117.2,15.5,116.5,17,116.5,18.5z"/>
	<path class="st0" d="M124.5,16.7c0-0.8,0-1.5-0.1-2.1h1.3l0.1,1.3h0c0.4-0.7,1.3-1.5,2.6-1.5c1.1,0,2.8,0.7,2.8,3.4v4.7h-1.4v-4.5
		c0-1.3-0.5-2.3-1.8-2.3c-0.9,0-1.7,0.7-1.9,1.5c-0.1,0.2-0.1,0.4-0.1,0.7v4.7h-1.4V16.7z"/>
	<path class="st0" d="M135.2,12.3v2.3h2v1.1h-2v4.2c0,1,0.3,1.5,1.1,1.5c0.4,0,0.7,0,0.8-0.1l0.1,1.1c-0.3,0.1-0.7,0.2-1.3,0.2
		c-0.7,0-1.2-0.2-1.5-0.6c-0.4-0.4-0.6-1.1-0.6-2v-4.3h-1.2v-1.1h1.2v-1.9L135.2,12.3z"/>
	<path class="st0" d="M139.6,18.8c0,1.9,1.3,2.7,2.7,2.7c1,0,1.6-0.2,2.2-0.4l0.2,1c-0.5,0.2-1.4,0.5-2.6,0.5c-2.4,0-3.9-1.6-3.9-4
		c0-2.4,1.4-4.2,3.7-4.2c2.6,0,3.3,2.3,3.3,3.7c0,0.3,0,0.5,0,0.7H139.6z M143.8,17.7c0-0.9-0.4-2.3-2-2.3c-1.4,0-2.1,1.3-2.2,2.3
		H143.8z"/>
	<path class="st0" d="M146.9,17c0-0.9,0-1.7-0.1-2.5h1.3l0,1.5h0.1c0.4-1.1,1.2-1.7,2.2-1.7c0.2,0,0.3,0,0.4,0v1.3
		c-0.1,0-0.3,0-0.5,0c-1,0-1.7,0.8-1.9,1.8c0,0.2-0.1,0.4-0.1,0.7v4.2h-1.4V17z"/>
	<path class="st0" d="M152.9,18.8c0,1.9,1.3,2.7,2.7,2.7c1,0,1.6-0.2,2.2-0.4l0.2,1c-0.5,0.2-1.4,0.5-2.6,0.5c-2.4,0-3.9-1.6-3.9-4
		c0-2.4,1.4-4.2,3.7-4.2c2.6,0,3.3,2.3,3.3,3.7c0,0.3,0,0.5,0,0.7H152.9z M157.1,17.7c0-0.9-0.4-2.3-2-2.3c-1.4,0-2.1,1.3-2.2,2.3
		H157.1z"/>
	<path class="st0" d="M160.7,14.6l1.7,4.7c0.2,0.5,0.4,1.1,0.5,1.6h0c0.1-0.5,0.3-1.1,0.5-1.6l1.6-4.6h1.5l-2.1,5.6
		c-1,2.7-1.7,4.1-2.7,4.9c-0.7,0.6-1.4,0.9-1.8,0.9l-0.4-1.2c0.4-0.1,0.8-0.3,1.3-0.7c0.4-0.3,0.9-0.9,1.2-1.6
		c0.1-0.1,0.1-0.3,0.1-0.3c0-0.1,0-0.2-0.1-0.4l-2.9-7.3H160.7z"/>
	<path class="st0" d="M171.4,11.6c0.7-0.1,1.6-0.2,2.7-0.2c1.4,0,2.4,0.3,3.1,0.9c0.6,0.5,1,1.3,1,2.3c0,1-0.3,1.8-0.8,2.3
		c-0.7,0.8-2,1.2-3.4,1.2c-0.4,0-0.8,0-1.1-0.1v4.4h-1.4V11.6z M172.8,16.9c0.3,0.1,0.7,0.1,1.2,0.1c1.7,0,2.7-0.8,2.7-2.3
		c0-1.4-1-2.1-2.6-2.1c-0.6,0-1.1,0-1.3,0.1V16.9z"/>
	<path class="st0" d="M180.4,18.8c0,1.9,1.3,2.7,2.7,2.7c1,0,1.6-0.2,2.2-0.4l0.2,1c-0.5,0.2-1.4,0.5-2.6,0.5c-2.4,0-3.9-1.6-3.9-4
		c0-2.4,1.4-4.2,3.7-4.2c2.6,0,3.3,2.3,3.3,3.7c0,0.3,0,0.5,0,0.7H180.4z M184.6,17.7c0-0.9-0.4-2.3-2-2.3c-1.4,0-2.1,1.3-2.2,2.3
		H184.6z"/>
	<path class="st0" d="M187.7,16.7c0-0.8,0-1.5-0.1-2.1h1.3l0.1,1.3h0c0.4-0.7,1.3-1.5,2.6-1.5c1.1,0,2.8,0.7,2.8,3.4v4.7H193v-4.5
		c0-1.3-0.5-2.3-1.8-2.3c-0.9,0-1.7,0.7-1.9,1.5c-0.1,0.2-0.1,0.4-0.1,0.7v4.7h-1.4V16.7z"/>
	<path class="st0" d="M198.3,12.4c0,0.5-0.3,0.9-0.9,0.9c-0.5,0-0.9-0.4-0.9-0.9c0-0.5,0.4-0.9,0.9-0.9
		C198,11.5,198.3,11.9,198.3,12.4z M196.7,22.4v-7.9h1.4v7.9H196.7z"/>
	<path class="st0" d="M200.4,21c0.4,0.3,1.2,0.6,1.9,0.6c1,0,1.5-0.5,1.5-1.2c0-0.7-0.4-1.1-1.5-1.4c-1.4-0.5-2.1-1.3-2.1-2.2
		c0-1.3,1-2.3,2.7-2.3c0.8,0,1.5,0.2,1.9,0.5l-0.4,1c-0.3-0.2-0.9-0.5-1.6-0.5c-0.8,0-1.3,0.5-1.3,1.1c0,0.7,0.5,0.9,1.5,1.3
		c1.4,0.5,2.1,1.2,2.1,2.4c0,1.4-1.1,2.4-2.9,2.4c-0.9,0-1.7-0.2-2.2-0.5L200.4,21z"/>
	<path class="st0" d="M213.6,20.3c0,0.8,0,1.5,0.1,2.1h-1.3l-0.1-1.3h0c-0.4,0.6-1.2,1.5-2.6,1.5c-1.2,0-2.7-0.7-2.7-3.4v-4.6h1.4
		v4.4c0,1.5,0.5,2.5,1.8,2.5c1,0,1.6-0.7,1.9-1.3c0.1-0.2,0.1-0.5,0.1-0.7v-4.8h1.4V20.3z"/>
	<path class="st0" d="M216,10.9h1.4v11.6H216V10.9z"/>
	<path class="st0" d="M224.2,22.4l-0.1-1h0c-0.4,0.6-1.3,1.2-2.4,1.2c-1.6,0-2.4-1.1-2.4-2.3c0-1.9,1.7-2.9,4.7-2.9v-0.2
		c0-0.7-0.2-1.8-1.8-1.8c-0.7,0-1.5,0.2-2,0.6l-0.3-0.9c0.7-0.4,1.6-0.7,2.6-0.7c2.4,0,3,1.6,3,3.2v2.9c0,0.7,0,1.4,0.1,1.9H224.2z
		 M223.9,18.4c-1.6,0-3.3,0.2-3.3,1.8c0,0.9,0.6,1.4,1.3,1.4c1,0,1.7-0.7,1.9-1.3c0-0.1,0.1-0.3,0.1-0.5V18.4z"/>
</g>
<text transform="matrix(1 0 0 1 76.3794 3.6411)" class="st1 st2"> </text>
</svg>
